<mxfile host="app.diagrams.net" modified="2022-11-25T07:26:02.539Z" agent="5.0 (Windows NT 10.0; Win64; x64) AppleWebKit/537.36 (KHTML, like Gecko) Chrome/107.0.0.0 Safari/537.36" version="20.6.0" etag="laQ1Az8eTC2atBmi5xrQ" type="github">
  <diagram id="GhoEhMiK8DE2ekpjffyF" name="Page-1">
    <mxGraphModel dx="501" dy="324" grid="1" gridSize="10" guides="1" tooltips="1" connect="1" arrows="1" fold="1" page="1" pageScale="1" pageWidth="850" pageHeight="1100" math="0" shadow="0">
      <root>
        <mxCell id="0" />
        <mxCell id="1" parent="0" />
        <mxCell id="0KBkOI2BfBEQl3GXZSKS-5" value="&lt;font style=&quot;font-size: 10px;&quot;&gt;type of&lt;/font&gt;" style="edgeStyle=orthogonalEdgeStyle;rounded=0;orthogonalLoop=1;jettySize=auto;html=1;exitX=0.5;exitY=1;exitDx=0;exitDy=0;" edge="1" parent="1" source="0KBkOI2BfBEQl3GXZSKS-1" target="0KBkOI2BfBEQl3GXZSKS-3">
          <mxGeometry relative="1" as="geometry" />
        </mxCell>
        <mxCell id="0KBkOI2BfBEQl3GXZSKS-7" value="launched" style="edgeStyle=orthogonalEdgeStyle;rounded=0;orthogonalLoop=1;jettySize=auto;html=1;exitX=1;exitY=0.5;exitDx=0;exitDy=0;entryX=0;entryY=0.5;entryDx=0;entryDy=0;fontSize=10;" edge="1" parent="1" source="0KBkOI2BfBEQl3GXZSKS-1" target="0KBkOI2BfBEQl3GXZSKS-6">
          <mxGeometry relative="1" as="geometry" />
        </mxCell>
        <mxCell id="0KBkOI2BfBEQl3GXZSKS-1" value="Imagination Technologies" style="rounded=0;whiteSpace=wrap;html=1;" vertex="1" parent="1">
          <mxGeometry x="40" y="200" width="80" height="40" as="geometry" />
        </mxCell>
        <mxCell id="0KBkOI2BfBEQl3GXZSKS-3" value="organization" style="text;html=1;strokeColor=none;fillColor=none;align=center;verticalAlign=middle;whiteSpace=wrap;rounded=0;" vertex="1" parent="1">
          <mxGeometry x="50" y="280" width="60" height="10" as="geometry" />
        </mxCell>
        <mxCell id="0KBkOI2BfBEQl3GXZSKS-9" value="type of" style="edgeStyle=orthogonalEdgeStyle;rounded=0;orthogonalLoop=1;jettySize=auto;html=1;exitX=0.5;exitY=1;exitDx=0;exitDy=0;entryX=0.5;entryY=0;entryDx=0;entryDy=0;fontSize=10;" edge="1" parent="1" source="0KBkOI2BfBEQl3GXZSKS-6" target="0KBkOI2BfBEQl3GXZSKS-8">
          <mxGeometry relative="1" as="geometry" />
        </mxCell>
        <mxCell id="0KBkOI2BfBEQl3GXZSKS-6" value="&lt;font style=&quot;font-size: 10px;&quot;&gt;Post IPO Equity Imagination Technologies&lt;/font&gt;" style="rounded=0;whiteSpace=wrap;html=1;" vertex="1" parent="1">
          <mxGeometry x="183" y="200" width="80" height="40" as="geometry" />
        </mxCell>
        <mxCell id="0KBkOI2BfBEQl3GXZSKS-8" value="funding round" style="text;html=1;strokeColor=none;fillColor=none;align=center;verticalAlign=middle;whiteSpace=wrap;rounded=0;" vertex="1" parent="1">
          <mxGeometry x="184.5" y="280" width="77" height="10" as="geometry" />
        </mxCell>
        <mxCell id="0KBkOI2BfBEQl3GXZSKS-11" value="funding&lt;br&gt;round&lt;br&gt;investor" style="edgeStyle=orthogonalEdgeStyle;rounded=0;orthogonalLoop=1;jettySize=auto;html=1;exitX=0;exitY=0.5;exitDx=0;exitDy=0;entryX=1;entryY=0.5;entryDx=0;entryDy=0;fontSize=10;" edge="1" parent="1" source="0KBkOI2BfBEQl3GXZSKS-10" target="0KBkOI2BfBEQl3GXZSKS-6">
          <mxGeometry relative="1" as="geometry" />
        </mxCell>
        <mxCell id="0KBkOI2BfBEQl3GXZSKS-13" value="type of" style="edgeStyle=orthogonalEdgeStyle;rounded=0;orthogonalLoop=1;jettySize=auto;html=1;exitX=0.5;exitY=1;exitDx=0;exitDy=0;entryX=0.5;entryY=0;entryDx=0;entryDy=0;fontSize=10;" edge="1" parent="1" source="0KBkOI2BfBEQl3GXZSKS-10" target="0KBkOI2BfBEQl3GXZSKS-12">
          <mxGeometry relative="1" as="geometry" />
        </mxCell>
        <mxCell id="0KBkOI2BfBEQl3GXZSKS-10" value="&lt;font style=&quot;font-size: 12px;&quot;&gt;Intel&lt;/font&gt;" style="rounded=0;whiteSpace=wrap;html=1;" vertex="1" parent="1">
          <mxGeometry x="330" y="200" width="80" height="40" as="geometry" />
        </mxCell>
        <mxCell id="0KBkOI2BfBEQl3GXZSKS-12" value="organization" style="text;html=1;strokeColor=none;fillColor=none;align=center;verticalAlign=middle;whiteSpace=wrap;rounded=0;" vertex="1" parent="1">
          <mxGeometry x="340" y="280" width="60" height="10" as="geometry" />
        </mxCell>
      </root>
    </mxGraphModel>
  </diagram>
</mxfile>
